<svg xmlns="http://www.w3.org/2000/svg" viewBox="0 0 316.3 426.2"><defs><style>.cls-1{fill:none;stroke:#231815;}</style></defs><g id="圖層_2" data-name="圖層 2"><g id="台灣"><path class="cls-1" d="M106,303.24c3.64,7.28,6.67,13.34,8.59,16.78a35.66,35.66,0,0,0,3.54,5.36,18.54,18.54,0,0,1,2,3.53,3.09,3.09,0,0,1,.3,1.93c-.1.3-.3.3-.91.5a3,3,0,0,0-1.92,1.42c-.3.81.1,2,1.32,3.84a64.64,64.64,0,0,0,4.65,5.86c1.41,1.62,2.22,2.43,3,3.24s1.62,1.61,2.27,2.27a7.73,7.73,0,0,1,1.37,1.57.73.73,0,0,1,0,.86c-.15.15-.36.15-1-.2s-1.62-1.07-2.12-1.32-.51-.05-.51.2,0,.56.61,1.07a10.59,10.59,0,0,0,2.83,1.56,16.58,16.58,0,0,0,2.42.51,5.47,5.47,0,0,1,1.82,1c.81.56,2,1.36,3.44,2.17s3,1.62,4.25,2.23a7.45,7.45,0,0,0,2.62,1c.61,0,1-.41,1.42-1s.81-1.42,1.21-1.62.81.2,1.22.81.81,1.41,1.21,2a4.69,4.69,0,0,0,1.42,1.42,25.33,25.33,0,0,0,2.42,1.31,12.21,12.21,0,0,1,3.44,2.32c6.06,6.07,10.92,10.32,13.75,12.64s3.64,2.73,4,3.14.41.8,1.32,2.52,2.73,4.76,7.58,12c1.21,2.43,1.21,3,1,3.95s-.61,2.12-1,3.53-.81,3-1,4.05a2.8,2.8,0,0,0,.2,2.22,21.1,21.1,0,0,0,2.53,3.64,47.86,47.86,0,0,1,4.24,5.56c1.12,1.92,1.52,3.74,2.13,4.65s1.41.91,1.82.41a5.82,5.82,0,0,0,.5-2.63,9.58,9.58,0,0,1,.61-2.93c.3-.61.71-.61,1.21-.31a28.46,28.46,0,0,1,3.54,3.34c3.64,1.21,3.64,2.43,3.74,3.44a3.77,3.77,0,0,0,.71,2.22,1.08,1.08,0,0,0,1.31.2c.31-.2.31-.6.51-1.81a32.24,32.24,0,0,0,.6-4.86c0-1.62-.4-2.83-.3-4.95s.71-5.16.71-7.58c0-1.22,1.82-3,2.73-4.15s.91-1.52.5-1.92a11.7,11.7,0,0,1-1.82-1.62c-.6-.81-1-2-.91-5.05s.71-7.89-.5-13.95c-1.21-3.64-.61-6.07-.3-8.5s.3-4.85.91-6.67,1.81-3,2.83-4.85a17.88,17.88,0,0,0,2-6.07c.2-1.82-.2-3,.2-5.05s1.62-4.86,2.22-7.08.61-3.84,1.62-6.07,3-5.05,7.08-9.9,10.11-11.73,13.34-15.57,3.64-4.65,3.64-5.46a16.07,16.07,0,0,0-.6-2.63c-.21-1-.21-2.22.6-2.83s2.43-.61,3.64-.61a4.81,4.81,0,0,0,2.63-.4c.61-.41,1-1.21,2.83-4.45s5.06-8.9,7.89-13.34,5.25-7.69,6.06-9.91,0-3.44-.4-4.65a21.27,21.27,0,0,1-.61-3.84,16.09,16.09,0,0,1-.4-4.25c.2-1.21,1-2,2.42-5.66s3.44-10.11,4.45-13.95,1-5.06.81-6.27a29,29,0,0,1-.6-3.24,3.06,3.06,0,0,1,.8-1.82,7.43,7.43,0,0,0,1-2.22,4,4,0,0,0-.41-2.93c-.61-1.32-1.82-3.14-1.82-4.35,0-2.43,1.21-3,1.82-3.94s.61-2.12,1.21-6,1.82-10.31,2.63-15.77,1.22-9.91,1.62-13.14.81-5.26,1.21-7.48a42.84,42.84,0,0,1,1.62-6.88,47.57,47.57,0,0,1,2.63-5.46,2.77,2.77,0,0,0,.4-2.42c-.2-.81-.6-2-.81-3.24a11.12,11.12,0,0,1,0-3.64,22.32,22.32,0,0,1,1.22-4c.6-1.62,1.41-3.64,1.82-4.85a3,3,0,0,0,0-2.63c-.41-1-1.22-2.63-1.42-3.44s.2-.81,2.23-2.22,5.66-4.25,7.48-5.87,1.82-2,1.62-3a21.13,21.13,0,0,1-.61-3.84,8.19,8.19,0,0,1,1-3.44,42.6,42.6,0,0,1,2.63-5.46,67.65,67.65,0,0,0,3.64-5.86c.81-1.82.81-3.44,1.21-4.65s1.21-2,1.62-3.44.4-3.44,1-5.26a22.18,22.18,0,0,1,2.43-4.45c.6-1,.6-1.41.4-1.61a7.69,7.69,0,0,1-1.82-1.42c-1.21-1.21-3.23-3.64-4.45-5.05a16.6,16.6,0,0,1-1.82-2.23,8.27,8.27,0,0,1-.4-2c-.2-1.21-.61-3.23-.81-5.26s-.2-4-.41-5.25-.6-1.62-.4-2.63a27.58,27.58,0,0,1,1.62-4.05c.6-1.41,1-2.62,1.61-4.24a30.34,30.34,0,0,1,2.84-5.87A54.75,54.75,0,0,1,308,40.79,11.36,11.36,0,0,1,311,38a10.31,10.31,0,0,1,2.43-.61,4.72,4.72,0,0,0,2-1,1.22,1.22,0,0,0,.2-1.42,4.14,4.14,0,0,0-1.41-2,7.93,7.93,0,0,0-3-1.21c-1-.2-1.82-.2-2.42-1s-1-2.43-1.82-3.84a7.57,7.57,0,0,0-3.44-3.24,16.91,16.91,0,0,0-4.45-.81,21.54,21.54,0,0,1-3.84-1c-1.21-.4-2.43-.81-3.44-1.21a13,13,0,0,0-3-1c-1.21-.21-2.83-.21-4.25-.41a7.57,7.57,0,0,1-3.43-1.21c-.81-.61-1.22-1.42-2.33-2.43a14.75,14.75,0,0,1-4.14-4.65c-6.07-1.21-6.07-1.82-6.47-3.13A18.23,18.23,0,0,0,265.93,3,5.32,5.32,0,0,0,262.09.55,9.89,9.89,0,0,0,256.23,2a70.51,70.51,0,0,0-6.88,4.85c-2.22,1.62-4.24,2.83-5.46,4.24a11.71,11.71,0,0,0-2,4.25,11,11,0,0,1-1.21,2.63,5.49,5.49,0,0,1-2.23,1.82,53.05,53.05,0,0,1-5.86,2.83,36.4,36.4,0,0,1-6.47,1.82,86.2,86.2,0,0,0-9.1,2.22c-2.22.81-2.63,1.62-4.65,3.24s-5.66,4-7.88,5.46-3,1.82-4.25,2.63a29.09,29.09,0,0,0-4.45,3.64,49.56,49.56,0,0,0-4.85,5.86,83.43,83.43,0,0,1-5.06,6.67C184,56.15,182,57.77,181,60s-1,5-1.21,7.27-.61,3.85-.81,5.26a12.86,12.86,0,0,1-.61,3.44c-.4.81-1.21,1.21-2.22,2.63s-2.23,3.84-3.44,5.25a5.62,5.62,0,0,1-3.64,2,9.64,9.64,0,0,0-3.44.8c-1,.61-1.82,1.82-3.43,3.64S158.16,94.57,157,97c-3.64,7.28-6.07,11.52-8.49,15.67s-4.86,8.19-6.27,11a49.58,49.58,0,0,0-2.63,6.67,39.57,39.57,0,0,1-3.44,7.28c-1.41,2.22-3,3.84-4.65,6.67s-3.23,6.88-4.45,9.5a27.7,27.7,0,0,1-3,5.26c-1,1.42-2.22,3-3.44,4.65s-2.42,3.24-3.84,5.46a40,40,0,0,0-4.14,8.29c-1.12,3.24-1.72,6.88-5.36,10.51-4.85,6.07-6.67,9.1-8.39,12.44a67.37,67.37,0,0,0-4.35,10.21,38.11,38.11,0,0,0-1.62,8.7,41.56,41.56,0,0,0,0,7.07c.2,2,.61,3.64.81,5.26a44.52,44.52,0,0,1,.2,5.46c0,2.22,0,5-.2,7.48s-.61,4.45-1,7.08-.81,5.86-1.41,9.3-1.42,7.07-2,9.3a28.52,28.52,0,0,0-1,3.64,2.06,2.06,0,0,0,.81,1.41c.41.41.81.81,1,2.63s.2,5.06.61,7.08,1.21,2.83,3.74,5.36A147.54,147.54,0,0,1,106,303.24Z"/></g><g id="離島"><path class="cls-1" d="M263.71,324.87a2.4,2.4,0,0,1-1-1,1.2,1.2,0,0,1-.11-1c.09-.2.28-.18.69,0a3.69,3.69,0,0,0,1.53.58c.52,0,.92-.41,1.32-.51a5,5,0,0,1,1.22.1,5.35,5.35,0,0,0,1.21-.3,1.7,1.7,0,0,1,1,0c.2.1.2.3.41.71a4.92,4.92,0,0,1,.6,1.31c0,.3-.4.3-.6.51s-.21.6-.51,1.11-.91,1.11-1.11,1.51,0,.61.3,1a6.54,6.54,0,0,1,.81,1.32c.1.3-.1.3-.5.2a5.82,5.82,0,0,1-1.52-.6,2.09,2.09,0,0,1-1-1.12c-.1-.4.1-.81-.2-.81s-1.12.41-1.62.51-.71-.1-.61-.71.51-1.62.51-2.12S264.11,325.07,263.71,324.87Z"/><path class="cls-1" d="M11.57,231.05c.2-.4.61-.2,1.11-.4a15.59,15.59,0,0,0,1.62-1.11,1.23,1.23,0,0,1,1.11-.21c.2.11.2.31.31.71a10.93,10.93,0,0,1,.3,1.21c0,.21-.2,0-.61-.1a2.3,2.3,0,0,0-1.72.31c-.7.4-1.51,1.21-1.92,1.11S11.37,231.46,11.57,231.05Z"/><path class="cls-1" d="M13,228a.45.45,0,0,0-.31-.4c-.1,0-.1.2-.2.2s-.3-.2-.51-.2a.66.66,0,0,0-.5.4.46.46,0,0,0,0,.51c.1.1.3.1.5.2s.41.3.61.4a.46.46,0,0,0,.51,0,.3.3,0,0,0,0-.4c-.1-.1-.31-.1-.31-.2S13,228.22,13,228Z"/><path class="cls-1" d="M13.79,248.54c0-.3,0-.71.11-.81s.3.1.4,0,.1-.5.2-.7a.25.25,0,0,1,.41-.11c.1.11.1.31.2.41s.3.1.61.2a2.62,2.62,0,0,1,.91.51c.2.2.2.4.1.5a.46.46,0,0,1-.51,0c-.2-.1-.4-.3-.61-.4a.45.45,0,0,0-.5,0c-.1.1-.1.3-.2.4s-.31.1-.41.21a.75.75,0,0,0-.1.5c0,.2,0,.4-.1.4s-.3-.2-.4-.4A1.38,1.38,0,0,1,13.79,248.54Z"/><path class="cls-1" d="M11.77,244.6c-.2,0-.6.2-.81.2s-.2-.2-.4-.3-.61-.1-.71.1.1.61.2,1.31a7.54,7.54,0,0,1,0,2.23c-.1.5-.3.5-.6.81a2.49,2.49,0,0,0-.71,1.21c0,.3.4.3.71.2a3.79,3.79,0,0,0,.81-.5,2.14,2.14,0,0,1,.91-.41c.2,0,.2.2.3.41a.66.66,0,0,0,.5.4.43.43,0,0,0,.41-.4c0-.21-.2-.41-.3-.71a1.29,1.29,0,0,1,0-.91c.1-.2.3-.2.4-.41a1.7,1.7,0,0,0,0-1c-.1-.4-.3-.8-.4-1.11A1.81,1.81,0,0,1,12,245C12,244.8,12,244.6,11.77,244.6Z"/><path class="cls-1" d="M20.87,194.86a1.78,1.78,0,0,0,.2,1.41c.21.41.41.61.81.41a13.75,13.75,0,0,0,1.42-1.11c.4-.31.6-.31.81-.51a1.52,1.52,0,0,0,.4-.91c0-.3-.2-.5-.5-.81s-.71-.7-1-.6-.5.7-.91,1.11S21.07,194.45,20.87,194.86Z"/><path class="cls-1" d="M24.61,214.57a4.77,4.77,0,0,0-.91-.3c-.2,0-.2.2-.3.3s-.3.1-.41.21a.45.45,0,0,0,0,.5,1.44,1.44,0,0,1,.31.71,4,4,0,0,1-.41,1.21,10.11,10.11,0,0,1-.6,1.42c-.21.3-.41.3-.51.2s-.1-.3-.2-.4-.3-.11-.41-.31a2.82,2.82,0,0,1-.1-1,2.85,2.85,0,0,0-.1-1c-.1-.2-.3-.2-.6.1a7,7,0,0,1-1.22,1.21,5.48,5.48,0,0,1-1.31.41c-.2.1,0,.3,0,.61a2.93,2.93,0,0,1-.41,1.11c-.2.4-.4.81-.3,1s.51.2.91-.1.81-.91,1.11-1,.51.3.81.6a6.91,6.91,0,0,0,.81.61c.1.1-.1.1-.2.3a1.13,1.13,0,0,0,0,.81c.1.2.3.2.71.2a6.7,6.7,0,0,1,1.41.1c.41.11.61.31.51.51s-.51.4-.71.71a3.88,3.88,0,0,0-.3,1,.93.93,0,0,1-.71.61,4.37,4.37,0,0,1-1.62,0,12.76,12.76,0,0,0-1.62-.31c-.4,0-.6.2-.81.2a.66.66,0,0,1-.5-.4c-.1-.2-.1-.4-.2-.61s-.31-.4-.31-.6a.68.68,0,0,1,.41-.51c.2-.1.4-.1.5-.2a.26.26,0,0,0-.1-.41,8.48,8.48,0,0,0-1-.2,9.28,9.28,0,0,0-1-.3c-.2,0-.2.2-.1.4s.3.41.4.61a1.09,1.09,0,0,1,0,.81,3.22,3.22,0,0,0-.2,1.31c.1.31.51.31.81.41a1.83,1.83,0,0,1,.71.5c.2.2.4.41.6.41s.41-.21.61-.31a.66.66,0,0,1,.61,0,1.74,1.74,0,0,1,.6.61,2.06,2.06,0,0,1,.41,1.11,8.48,8.48,0,0,1-.2,1c0,.21.2.21.4.11a2.35,2.35,0,0,1,.91-.41c.51-.1,1.31-.1,1.92-.2a3.16,3.16,0,0,0,1.32-.51,1.33,1.33,0,0,0,.6-.71,1.74,1.74,0,0,0,0-1,4.35,4.35,0,0,0-.4-.7.48.48,0,0,1,.1-.61,8.14,8.14,0,0,1,1.11-.71,4.63,4.63,0,0,0,1.52-1.31c.4-.61.6-1.42.91-1.92a1.27,1.27,0,0,1,.91-.71c.2,0,.2.2.5.3a5.9,5.9,0,0,0,1.42.1,3.83,3.83,0,0,1,1.21.11.92.92,0,0,1,.61.6c.1.31.1.71.2.91s.3.2.81-.1a12,12,0,0,0,1.62-1.21c.3-.31.1-.31-.1-.41a3.19,3.19,0,0,0-.81-.4c-.41-.1-1-.1-1.32-.41a2.12,2.12,0,0,1-.3-1.41,4.16,4.16,0,0,1,.1-1.21c.1-.31.3-.51.2-.81a3.87,3.87,0,0,0-.91-1.12c-.4-.4-.81-.8-1-.8s-.2.4-.4.6a.62.62,0,0,1-.81,0c-.2-.2-.2-.6-.31-.81a.21.21,0,0,0-.4,0,4.56,4.56,0,0,1-.3.91c-.21.31-.61.51-.81.91s-.2,1-.31,1.12-.3-.31-.5-.41-.4.1-.61.51a6.79,6.79,0,0,1-.6,1.21c-.21.2-.41,0-.41-.2s.2-.41.31-.71a3.82,3.82,0,0,0,.1-1.11,2.82,2.82,0,0,1,.1-1c.1-.21.3-.21.4-.31a.45.45,0,0,0,0-.5,1.23,1.23,0,0,0-.5-.51.46.46,0,0,0-.51,0,.78.78,0,0,0-.1.51.75.75,0,0,1-.1.5C25.12,214.67,24.92,214.67,24.61,214.57Z"/><path class="cls-1" d="M14.3,210.43c.1-.2.1-.41-.1-.51a2.85,2.85,0,0,0-1-.1,5,5,0,0,1-1.22-.1,6,6,0,0,0-1.11-.3c-.3,0-.5.2-.7.5a6.26,6.26,0,0,0-.61,1.22,2.81,2.81,0,0,0-.3,1.51c.1.41.5.61.7.91a1.33,1.33,0,0,1,.1,1.11,1.52,1.52,0,0,1-.5.91c-.2.11-.41-.1-.61-.3s-.4-.4-.5-.4-.1.2,0,.5a2.62,2.62,0,0,0,.6,1c.31.31.71.51.91.71s.21.41.1.51-.3.1-.4.4-.1.91-.2,1.21a.32.32,0,0,1-.51.21c-.2-.1-.4-.31-.6-.41a.48.48,0,0,0-.61.1c-.2.21-.41.61-.71.91a1.63,1.63,0,0,1-.91.51c-.2,0-.2-.2-.3-.2s-.31.2-.41.4a.66.66,0,0,0,0,.61.68.68,0,0,0,.51.4c.2,0,.4-.2.61-.4a4.37,4.37,0,0,1,.7-.61,3.82,3.82,0,0,1,1.12-.5,2.26,2.26,0,0,1,1.21,0,3.76,3.76,0,0,1,1.11.5c.3.2.51.41.71.41s.4-.21.5-.51a1.41,1.41,0,0,0,0-.91c-.1-.2-.3-.2-.4-.3s-.1-.31,0-.61a8.53,8.53,0,0,0,.4-1.21c.1-.51.1-1.12.21-1.42s.3-.3.4-.4.1-.31.2-.81a5.73,5.73,0,0,0,.2-1.92,5.56,5.56,0,0,0-.6-1.32.49.49,0,0,1,.3-.6,1.31,1.31,0,0,1,.61-.1,1.13,1.13,0,0,0,1.11-.61Z"/><path class="cls-1" d="M16.73,208.31a2,2,0,0,1-.91-.91,2.32,2.32,0,0,1-.21-1.12c0-.3,0-.5.11-.6s.3-.1.6-.1a4.12,4.12,0,0,0,1.11-.11,6.28,6.28,0,0,0,1.22-.5,6.25,6.25,0,0,1,1.21-.51,5.37,5.37,0,0,1,1.31-.1,3,3,0,0,1,1.42.2.78.78,0,0,1,.2.91c-.1.31-.3.51-.2.81s.51.71.61,1a.49.49,0,0,1-.31.61c-.2.1-.4.1-.5.51a2.28,2.28,0,0,0,.2,1.61c.3.41.91.41,1,.51s-.3.3-.71.61-.81.7-1,.81-.2-.11-.4-.31-.61-.4-.71-.6.1-.41.2-.71a1.2,1.2,0,0,0-.1-1c-.2-.31-.61-.51-.81-1s-.2-1.32-.4-1.62-.61-.1-.91.1a3.56,3.56,0,0,1-.81.5c-.3.11-.71.11-.81.21s.1.3.1.5A.35.35,0,0,1,16.73,208.31Z"/><path class="cls-1" d="M277.56,398a.46.46,0,0,0-.51,0,3.51,3.51,0,0,1-.71.41,2.08,2.08,0,0,1-1.11,0c-.4-.1-.81-.3-1.31-.41a5,5,0,0,0-1.72,0,12.76,12.76,0,0,1-1.62.31.74.74,0,0,1-.71-.41c-.1-.2-.1-.4-.2-.5a.45.45,0,0,0-.5,0,1.23,1.23,0,0,0-.51.5.46.46,0,0,0,0,.51c.1.1.31.1.41.2s.1.3.2.51a2.54,2.54,0,0,1,.4.91,6.17,6.17,0,0,1,0,1.92c-.1.6-.3,1-.3,1.21s.2.2.5.2a3.54,3.54,0,0,1,1,.1,1.25,1.25,0,0,1,.7.71,10.45,10.45,0,0,0,.71,1.42,1.58,1.58,0,0,0,1.42.6c.7,0,1.72-.2,2.22-.2s.51.2.51.51a1.35,1.35,0,0,0,.3,1c.3.3.91.5,1.11.81s0,.7,0,1a.63.63,0,0,0,.51.6c.3.11.7.11,1,.21s.5.3.71.3.4-.2.6-.61a3.78,3.78,0,0,0,.41-1.41c0-.41-.21-.61-.21-.81s.21-.41.41-.61.4-.4.3-.5a4.57,4.57,0,0,0-.91-.21,2.42,2.42,0,0,1-1.11-.6c-.3-.31-.51-.71-.71-.81s-.4.1-.81,0a2.6,2.6,0,0,1-1.21-.81c-.2-.3,0-.5,0-.71s-.2-.4-.3-.6a.48.48,0,0,1,.1-.61,1.53,1.53,0,0,1,.91-.41c.3,0,.5.21.61.21s.1-.21.1-.41a.75.75,0,0,0-.1-.5c-.11-.1-.31-.1-.51-.31a1.1,1.1,0,0,1-.1-1.61,1.33,1.33,0,0,0,.1-.61A.79.79,0,0,0,277.56,398Z"/><path class="cls-1" d="M.65,269.47c.2-.2.61-.2,1-.4s.81-.61,1.22-.61.8.4,1.21.61a2.58,2.58,0,0,0,1.21.2c.41,0,.81,0,.81.2s-.4.61-.61,1-.2.81-.4,1-.61.2-.81.41-.2.6-.4.8-.61.21-.81.41-.2.61-.41.61a.91.91,0,0,1-.6-.81c0-.41.4-.81.6-1.22a.87.87,0,0,0,0-1,1.51,1.51,0,0,0-1-.2,1.53,1.53,0,0,1-1-.2A.62.62,0,0,1,.65,269.47Z"/></g><g id="市級"><path class="cls-1" d="M134.1,226c.2,0,.61.4,1,.6a2.49,2.49,0,0,0,1.21.21h1.42a5.05,5.05,0,0,1,1.82.2c.4.2.4.61.61.81s.6.2.81.4a.91.91,0,0,1,0,1c-.21.41-.61.81-.61,1s.4.21.81.21a1.53,1.53,0,0,1,1,.2c.2.2.2.6.4,1s.61.81.61,1.21-.4.81-.81,1.22a5.19,5.19,0,0,0-1,1.21c-.2.4-.2.81-.4.81s-.61-.41-.81-.81-.21-.81-.41-1.21a1.32,1.32,0,0,0-1-.81,1.34,1.34,0,0,0-1,.81c-.2.4-.2.8-.4,1s-.61.2-.81.4-.21.61-.41.81a.91.91,0,0,1-1,0,2.46,2.46,0,0,1-1-1,2.6,2.6,0,0,1-.2-1.21,1.56,1.56,0,0,0-.2-1,.91.91,0,0,0-1,0c-.41.21-.81.61-1,.61s-.2-.4-.4-.61-.61-.2-1-.4a2.4,2.4,0,0,1-1-1c-.2-.41-.2-.81-.41-1.42a7.64,7.64,0,0,1-.6-2,.93.93,0,0,1,.81-1c.4,0,.8.41,1.21.81s.81.81,1,.81.2-.41.4-.61a1.56,1.56,0,0,1,1-.2h1.21c.4,0,.81,0,.81-.2s-.41-.61-.61-1S133.9,226,134.1,226Z"/><path class="cls-1" d="M278.94,15.67a18.51,18.51,0,0,0-.88,3.08c-.2.6-.6.6-1.21.6h-2c-.61,0-1,0-1.42.61a10.28,10.28,0,0,0-1,2.63c-.2.81-.2,1.21,0,1.41s.61.21,1,.61.81,1.21,1.62,2.23,2,2.22,2.83,3.23a11.59,11.59,0,0,0,1.82,2.22,7.05,7.05,0,0,0,2.63.61c1.21.2,2.83.61,4,.81a5.66,5.66,0,0,0,2.63,0,3.68,3.68,0,0,0,1.42-1,5.63,5.63,0,0,0,1-1.21,2.62,2.62,0,0,0,.2-1.22,1.53,1.53,0,0,0-.2-1c-.2-.2-.61-.2-1-.4a3.42,3.42,0,0,1-1.22-1.22,9.77,9.77,0,0,1-1-2,1.19,1.19,0,0,1,.21-1.41,4.46,4.46,0,0,1,2.22-1,17.14,17.14,0,0,0,2.83-.51c.4-.2.54-.53,1.29-1.09-1-.34-2-.69-2.91-1a13,13,0,0,0-3-1c-1.21-.21-2.83-.21-4.25-.41a7.57,7.57,0,0,1-3.43-1.21C280.33,17.36,279.93,16.61,278.94,15.67Z"/><path class="cls-1" d="M263.51,12.88a2.15,2.15,0,0,0-1.27-.7,4.15,4.15,0,0,0-1.77.05c-.4.15-.4.45-.81.65s-1.21.31-1.66.51-.56.5-.66,1.11a13,13,0,0,1-.36,1.92c-.15.41-.35.31-.85.25a4.42,4.42,0,0,0-2.33.41A7.68,7.68,0,0,0,251,19.3a6.31,6.31,0,0,0-.81,2.33,9,9,0,0,1-.81,1.57c-.2.4-.2.7.41,1.11a11.36,11.36,0,0,0,2.52,1.11c.71.2.91.1,1.37.51a11.36,11.36,0,0,1,1.52,1.87c.35.55.35.75-.11,1.51a16.46,16.46,0,0,0-1.77,3.39,6.65,6.65,0,0,0-.15,3.23c.15.61.36.51.66.46a4.05,4.05,0,0,0,1.16-.25c.46-.21,1-.61,1.37-.76a.81.81,0,0,1,.91.15c.2.2.3.51.5.66s.51.15.71.55.3,1.22.56,1.82.65,1,.75,1.32-.1.5.31.7a24,24,0,0,1,2.32.91A17.81,17.81,0,0,0,265,43.11a7.17,7.17,0,0,0,2.53.1c.61,0,.81.21,1.11-.1a4,4,0,0,0,.81-1.57c.1-.45-.1-.55-.71-.55a9.86,9.86,0,0,1-2.12-.05c-.51-.15-.51-.56-.51-1a3.83,3.83,0,0,1,.21-1.42,5.28,5.28,0,0,1,1-1.82c.4-.4.81-.4,1-.6s.2-.61.4-.81.61-.2,1.22-.2a7,7,0,0,1,2,.2c.6.2,1,.6,1.21.6s.2-.4.2-.8a1.51,1.51,0,0,0-.4-1.22,14.35,14.35,0,0,0-1.82-1.21A3.45,3.45,0,0,1,270,31.49a11.1,11.1,0,0,1-.41-1.42,18,18,0,0,1-.81-2.43,6.68,6.68,0,0,1,0-2.83c.21-.6.61-.6.41-.81s-1-.6-1.42-1a1.2,1.2,0,0,1-.2-1.41,8.2,8.2,0,0,0,.61-2c0-.56-.41-.86-1-1.27a6,6,0,0,1-1.81-1.56,10.35,10.35,0,0,1-.66-2.18A5,5,0,0,0,263.51,12.88Z"/><path class="cls-1" d="M146.43,146.54c0-.21.41-.61.81-1a5,5,0,0,0,1-1.21,1.24,1.24,0,0,0,0-1.21c-.2-.41-.6-.81-.6-1.22s.4-.8.6-1.21.21-.81.81-1a7.61,7.61,0,0,1,3,0c1.21.2,2.42.61,3.64.81a8.7,8.7,0,0,0,3.23,0c.81-.2,1.21-.61,1.62-.61s.81.41.61.81-1,.81-1,1.21.81.81,1.62.81a4.22,4.22,0,0,0,2.23-.81,8.35,8.35,0,0,0,1.41-1.21,3.68,3.68,0,0,1,1.42-1,4.16,4.16,0,0,1,2.22,0,12.53,12.53,0,0,1,2.43,1,12.77,12.77,0,0,1,1.82,1c.2.2-.21.2-.61.41a3.37,3.37,0,0,0-1.21,1.21,9.3,9.3,0,0,0-1,2c-.21.61-.21,1-.81,1s-1.82-.4-2.83-.4-1.82.4-2.63.4-1.62-.4-2.23-.4a1,1,0,0,0-1,1,7.78,7.78,0,0,0,.61,2c.2.61.2,1-.2,1.21a15.91,15.91,0,0,1-2,.41c-.81.2-1.62.61-2.23.81s-1,.2-1.41.6-.81,1.22-1.22,1.22-.81-.81-1.41-1.22-1.42-.4-1.82-.8-.41-1.22-.81-1.62-1.21-.41-1.82-.61a2.05,2.05,0,0,1-1.21-1c-.21-.4-.21-.81-.41-1S146.43,146.74,146.43,146.54Z"/><path class="cls-1" d="M117.7,324.81c.15.19.29.37.43.57a18.54,18.54,0,0,1,2,3.53,3.09,3.09,0,0,1,.3,1.93c-.1.3-.3.3-.91.5a3,3,0,0,0-1.92,1.42c-.3.81.1,2,1.32,3.84a64.64,64.64,0,0,0,4.65,5.86c1.41,1.62,2.22,2.43,3,3.24s1.62,1.61,2.27,2.27a7.73,7.73,0,0,1,1.37,1.57.73.73,0,0,1,0,.86c-.15.15-.36.15-1-.2s-1.62-1.07-2.12-1.32-.51-.05-.51.2,0,.56.61,1.07a10.59,10.59,0,0,0,2.83,1.56,11.36,11.36,0,0,0,2.13.45,6.71,6.71,0,0,0,.7-1.31c.2-.3.6-.3,1-.3a1.53,1.53,0,0,0,1-.2c.2-.2.2-.61.4-.81s.61-.2.81-.41.2-.6.41-.8.6-.21.6-.41-.4-.61-.6-1-.21-.81-.41-1-.6-.2-.81-.4-.2-.61-.4-1a5.4,5.4,0,0,0-1-1.21c-.41-.4-.81-.81-1-.81s-.2.41-.41.61a.62.62,0,0,1-.81,0c-.2-.2-.2-.61-.6-.81a2.26,2.26,0,0,0-1.62,0c-.4.2-.4.61-.61.81a2.65,2.65,0,0,1-2,0,.62.62,0,0,1,0-.81c.2-.2.61-.2,1-.4s.81-.61.81-.81-.4-.21-.81-.41a2.4,2.4,0,0,1-1-1c-.2-.4-.2-.81.2-1a2.26,2.26,0,0,1,1.62,0c.41.2.41.61.61.81s.6.2.81-.61a11,11,0,0,0,0-3.64,6.7,6.7,0,0,0-1-2.63c-.41-.6-.81-1-1-1.41s-.2-.81-.6-1-1.21-.2-1.62-.41a.5.5,0,0,1-.2-.81c.2-.2.61-.2,1-.4a1.36,1.36,0,0,0,.81-1c0-.41-.41-.81-.61-1.21a.91.91,0,0,1,0-1c.2-.21.61-.21,1-.21s.81,0,1-.4a2.69,2.69,0,0,0,0-1.82,8.24,8.24,0,0,0-.81-1.42c-.2-.4-.2-.81-.4-1s-.61-.2-.81-.4-.2-.61-.4-.61a.92.92,0,0,0-.61.81c0,.4.41.81.61,1.21s.2.81-.2,1-1.22.2-1.62.4-.41.61-.61.81a.91.91,0,0,1-1,0,5.4,5.4,0,0,1-1.21-1c-.41-.41-.81-.81-1.22-.81s-.81.4-1.31.91A8.53,8.53,0,0,0,117.7,324.81Z"/><path class="cls-1" d="M106.06,303.37c.37-.57.65-.92.9-1.25a6.83,6.83,0,0,1-.66-.3c-.3-.2-.3-.61-.3-1a1.53,1.53,0,0,1,.2-1c.2-.2.6-.2.81-.41s.2-.6.4-.8a.87.87,0,0,1,1,0c.41.2.81.6,1.22.6a.89.89,0,0,0,.8-.6c0-.21-.4-.21-.6-.41a1.53,1.53,0,0,1-.2-1c0-.4,0-.81.2-.81s.6.41,1,.61a.91.91,0,0,0,1,0,2.65,2.65,0,0,0,0-2c-.2-.21-.61-.21-1-.41s-.81-.6-1.21-.81-.81-.2-1-.4-.2-.61-.2-1.21a7,7,0,0,1,.2-2,2.1,2.1,0,0,1,1-1.21c.4-.2.8-.2,1-.4a.93.93,0,0,0,0-1,2.58,2.58,0,0,0-1-1,1.32,1.32,0,0,0-1.22,0c-.4.21-.81.61-1,.61s-.2-.4-.2-.81,0-.81-.41-1-1.21-.2-1.61-.4-.41-.61-.61-.81a.62.62,0,0,0-.81,0c-.2.2-.2.6-.81.6a7.84,7.84,0,0,1-2.63-.8,17.64,17.64,0,0,0-1.82-1,4.16,4.16,0,0,0-2.22,0A4.42,4.42,0,0,0,94,284.23c-.5.57-1,1.34-2.46,3a24,24,0,0,0,2.86,3.14A147.54,147.54,0,0,1,106,303.24Z"/></g><g id="縣級間隔線"><path class="cls-1" d="M211.89,245.88c-1.18.4-2,.54-3,.94a30.18,30.18,0,0,0-4.24,2.63,17,17,0,0,0-2.83,2c-.81.81-1.62,2-2.43,3s-1.62,1.82-2.22,2.63a10.45,10.45,0,0,0-1.42,2.62,20.46,20.46,0,0,0-1,3.24,44.51,44.51,0,0,0-.41,4.45c-.2,2.63-.6,7.07-.8,10.11s-.21,4.65-.41,5.66a3.06,3.06,0,0,1-1,1.82l-1.21,1.21a9,9,0,0,0-1.22,1.42,7.67,7.67,0,0,0-1,2.22,5,5,0,0,0,0,2.43,7.67,7.67,0,0,0,1,2.22,6.58,6.58,0,0,1,1.22,2.43c.4,1.41.81,3.84,1.21,5.26a4.75,4.75,0,0,0,2,2.83,36.93,36.93,0,0,1,4.25,3.84,4.12,4.12,0,0,1,1,3.23,27.47,27.47,0,0,1-.2,4.05A4.5,4.5,0,0,1,198,318.8c-.6.61-1.41,1-3.43,1.82a54.75,54.75,0,0,0-6.88,3c-1.62,1-1.62,1.82-2,3.64s-1.21,4.65-2,7.07-1.62,4.45-2,6.07a8.54,8.54,0,0,0-.21,3.84,35.7,35.7,0,0,0,1.42,4.05,84.29,84.29,0,0,1,2.63,8.49,22.47,22.47,0,0,1,.6,5.66,15.87,15.87,0,0,0,.21,3.44,1.7,1.7,0,0,0,1.41,1.41,9.76,9.76,0,0,1,2.63.61c.61.4.61,1.21.61,2.22a14.56,14.56,0,0,0,.2,3,3.71,3.71,0,0,0,1.21,1.82,9.83,9.83,0,0,0,2.23,1.81c.81.41,1.61.41,2.63.81s2.22,1.22,3.43,1.62a14,14,0,0,0,4.55.41,11.49,11.49,0,0,1,1.53.07"/><path class="cls-1" d="M246.23,89.88a2.48,2.48,0,0,1,.09,2.47,13.54,13.54,0,0,1-2.23,3.43c-1,1.22-2.22,2.43-3.63,4.25s-3,4.25-4.25,5.66a8.08,8.08,0,0,1-3,2.33c-1,.5-2.23,1.11-7.08,2.32"/><path class="cls-1" d="M251.88,76.81c-1.1,1.85-2.38,3.62-3.24,5a10.65,10.65,0,0,0-1.71,4.55,11.77,11.77,0,0,1-.7,3.5"/><path class="cls-1" d="M251.88,76.81c.47.09,1-.23,1.92-.64,1.42-.61,3.84-1.41,5.86-2.22s3.64-1.62,4.86-2.23,2-1,2.22-2.22a33.14,33.14,0,0,0-.2-4.45c0-1.21.4-1.62,3.64-3.64s9.3-5.66,12.74-7.88,4.24-3,4.85-4.05,1-2.22,1.41-2.43.81.61,1.62.81a3.8,3.8,0,0,0,2.83-.81,5.62,5.62,0,0,0,1.62-2.22,6.08,6.08,0,0,1,2.22-2.63,48.71,48.71,0,0,1,5.46-3,11.81,11.81,0,0,1,3.74-1.42A12.65,12.65,0,0,1,311,38"/><path class="cls-1" d="M226.1,110.34c-1.21,1.22-1.21,2.43-1.62,3.44a4.3,4.3,0,0,1-1.62,2c-.4.2-.4-.2-.8-.4a3.46,3.46,0,0,0-2.43.2,13.85,13.85,0,0,0-3.84,2,13.29,13.29,0,0,0-1.82,2,1.49,1.49,0,0,1-1.22.41,1.69,1.69,0,0,0-1.41.6c-.61.61-1.42,1.82-2,2.43a1.68,1.68,0,0,1-1.42.61h-1.41a3.43,3.43,0,0,0-2.23.6c-.81.61-1.62,1.82-2.22,2.23s-1,0-1.62-.2-1.41-.21-2-.41a2.05,2.05,0,0,1-1.21-1c-.21-.4-.21-.81-.41-1s-.61-.2-1.21,0-1.42.61-2,.81a2.26,2.26,0,0,1-1.62,0c-.61-.2-1.42-.61-2.23-.81a9.86,9.86,0,0,0-2.42-.2h-2.23a2.88,2.88,0,0,1-1.41-.21,6.22,6.22,0,0,1-1.42-1.21,15.88,15.88,0,0,0-2-1.82,2.75,2.75,0,0,0-1.82-.4,13.49,13.49,0,0,0-2.83.2,9.53,9.53,0,0,0-2,1c-.81.4-2,.81-3.24,1.42a17.24,17.24,0,0,1-3.43,1.61,5.49,5.49,0,0,1-2.63-.4,10.06,10.06,0,0,1-2.83-.81c-1.22-.61-2.83-1.82-4.25-2.63s-2.63-1.21-3.64-1.82a13.15,13.15,0,0,1-2.53-2.12c-.55-.56-1-1.05-3-3"/><path class="cls-1" d="M251.8,114.3c-3.43,4.28-5.37,6.67-6.9,8.27a48.82,48.82,0,0,1-3.64,3.34c-.6.61-.6,1-.6,2a30.38,30.38,0,0,0,.2,4,13,13,0,0,0,1.42,4.24c.8,1.62,2,3.64,2.42,4.65s0,1-.81,1a6.79,6.79,0,0,0-2.83.41,2.89,2.89,0,0,0-1.41,2,4.77,4.77,0,0,0,0,2.43,5.15,5.15,0,0,1,.4,2.42c-.2.81-1,1.62-2.43,3.44a62.27,62.27,0,0,0-4.44,6.47c-1,1.82-1,2.63-.81,3.24a3.54,3.54,0,0,0,1,1.41,8.93,8.93,0,0,1,1.21,1.42,4.65,4.65,0,0,1,.81,2.83,23.4,23.4,0,0,1-.81,5.05,29.16,29.16,0,0,1-1.21,3.84c-.41,1-.81,1.82-1.21,2.63a23.53,23.53,0,0,1-1.62,2.83c-.81,1.22-2,2.83-2.63,3.84s-.61,1.42-.2,1.82,1.21.81,2,1.42a22.41,22.41,0,0,1,2.22,2c.61.61,1,1,1,1.62s-.4,1.41-1,4.25-1.41,7.68-2,10.11-1,2.42-2,2.83a11.75,11.75,0,0,0-3.44,2,3.19,3.19,0,0,0-.81,2.63,11.7,11.7,0,0,1-.2,2.83c-.2.6-.61.6-1.82.81s-3.23.6-4.45.81-1.61.2-2,.8-.81,1.82-1.62,3.24a35.29,35.29,0,0,1-2.83,4c-.81,1-1.21,1.42-1.21,1.82s.4.81.81,1.22a5.19,5.19,0,0,1,1,1.21c.2.4.2.81-.2,1a18.09,18.09,0,0,1-2,.4c-.8.21-1.61.61-2.42.81a19.32,19.32,0,0,0-2,.41c-.41.2-.41.6-.41,1.21a6.59,6.59,0,0,0,.21,2c.2.61.6,1,1.61,1.22s2.63.2,3.84.4,2,.61,2.23,1.21-.2,1.42-.41,2.43a6.06,6.06,0,0,0,.15,3.1"/><path class="cls-1" d="M106.06,303.37c.44-.68.76-1.05,1-1.45.5-.71.91-1.51,1.31-1.51s.81.8,1.82,1.41a8.75,8.75,0,0,0,4.25,1c1.62,0,3.23-.4,4.24-.2s1.42,1,2.23,1.41a5.59,5.59,0,0,0,3.23.21c1.22-.21,2.43-.61,3.44-.81a13.55,13.55,0,0,0,2.22-.41c.41-.2.41-.6.61-1.21a5.43,5.43,0,0,1,1.21-2,3.22,3.22,0,0,1,2-1,3,3,0,0,1,1.41.6.87.87,0,0,0,1,0c.2-.2.2-.6.2-1.41a15.71,15.71,0,0,1,.21-3,4.55,4.55,0,0,1,1-2.23c.4-.4.81-.4,1.62-.6a16.35,16.35,0,0,0,2.83-1,2.83,2.83,0,0,0,1.41-1.21,3.51,3.51,0,0,0,.2-1.62,10.2,10.2,0,0,1,.21-2.62c.2-.61.6-.61,1.82-1.82s3.23-3.64,5.66-6.07,5.25-4.85,6.87-6.67a9.49,9.49,0,0,0,2.43-4.65,51.2,51.2,0,0,1,1.41-5.26c.61-1.62,1.42-2.83,2-4.25s1-3,2.22-4.24,3.23-2,5.26-3a21.49,21.49,0,0,0,5.25-3.43,19.07,19.07,0,0,0,2.43-3.64,15.24,15.24,0,0,1,3.64-3.64c1.62-1.22,3.64-2.43,5.26-3.44s2.83-1.82,3.74-2.53,1.41-1.21,3.39-4.13"/><path class="cls-1" d="M106.89,188.39c.47.27.91.5,1.33.71a21.9,21.9,0,0,0,2.43,1.11,4,4,0,0,0,1.41.2,7.88,7.88,0,0,0,1.82-.2,24.71,24.71,0,0,0,3.64-1,11.93,11.93,0,0,1,2.43-1,24.86,24.86,0,0,1,4.24-.21,17.08,17.08,0,0,1,4.65.41c1.42.4,2.63,1.21,4.45,1.62a60.64,60.64,0,0,0,6.27.6c2,.21,3.64.61,5.86.81s5.06.2,6.88.2a11.22,11.22,0,0,1,3.23.21,3.58,3.58,0,0,1,1.42,1c.4.4.81.81.81,1.21s-.41.81-.61,1.42a8.35,8.35,0,0,0-.2,2.42,14.56,14.56,0,0,1-.2,3c-.21.8-.61,1.21-.81,2a15.48,15.48,0,0,0-.2,3.23v3.24c0,.81,0,1.21.2,1.21a4,4,0,0,1,1.41-.4,29,29,0,0,1,3.24.6,7.28,7.28,0,0,0,3.64-.2c1.21-.4,2.42-1.21,3.44-1.41a4.32,4.32,0,0,1,2.42.4c.61.2,1,.2,1.21.4s.21.61.41,1a2.79,2.79,0,0,0,1.62,1.21c1,.4,2.63.81,3.84,1.21a6.47,6.47,0,0,1,2.63,1.42A4.8,4.8,0,0,1,181,217.1a4.2,4.2,0,0,1,0,2.23c-.2.6-.61,1-.4,1.41s1,.81,2,1.82,2.22,2.63,3.23,3.84,1.82,2,3,2.23a27.35,27.35,0,0,0,4-.21,8.12,8.12,0,0,1,2.28.42"/><path class="cls-1" d="M195.22,228.84c.24.07.49.14.75.19a24.35,24.35,0,0,0,4.35.2h9.2"/><path class="cls-1" d="M211.89,245.88l.06.14c.4,1,1.21,1.81,3.64,3.23s6.47,3.44,8.89,4.85,3.24,2.23,3.84,2.43,1-.2,1.62-.41a2.38,2.38,0,0,1,2,.21c.61.4,1,1.21,2.83,2.62a51.48,51.48,0,0,0,7.08,4.45,6.87,6.87,0,0,0,3.64,1,5.67,5.67,0,0,0,2-.2c.41-.2.41-.6.61-1a8.81,8.81,0,0,0,.81-1.41c.2-.61.2-1.42,1.41-5.67S254,244.2,255.42,240s1.82-5.06,2-5.66a4.51,4.51,0,0,0,.2-1.62,4.75,4.75,0,0,0-.4-2.22c-.41-.81-1.22-1.62-1.42-2s.2-.4,1.82-1.21,4.45-2.43,6.07-3,2-.2,2.53.3a19,19,0,0,0,3.25,2.53"/><path class="cls-1" d="M235.23,106.71c1,1.83,1.93,3.26,2.6,4.34a8.62,8.62,0,0,0,1.82,2.53,4.39,4.39,0,0,0,2.42.4,17.63,17.63,0,0,0,3.24-.2,14.32,14.32,0,0,1,2.83-.61,8.34,8.34,0,0,1,3.44,1,21.57,21.57,0,0,0,3.84,1.82,37.41,37.41,0,0,0,4,.61,7.59,7.59,0,0,1,2.23,1,16.6,16.6,0,0,0,3.84,1.21,31.16,31.16,0,0,0,5.66.81,3.49,3.49,0,0,0,2.63-1c.81-.6,2-1.41,2.83-2s1.21-1,1.62-1,.8.4,1.41.81a4.56,4.56,0,0,0,2.63.81c1.21,0,2.83-.41,4.55-.31a53,53,0,0,1,6.48,1.28"/><path class="cls-1" d="M227.12,24.19c1.82.53,2.64.77,3.33.93a14,14,0,0,1,2.93.7,18.8,18.8,0,0,1,2.63,2,17.76,17.76,0,0,1,2.83,2.42,3.69,3.69,0,0,1,.6,2.43,12.57,12.57,0,0,1-.2,2.63,13,13,0,0,1-1,3A5.66,5.66,0,0,1,237,40a8.93,8.93,0,0,1-1.42,1.21,7.17,7.17,0,0,1-2.22,1,15.19,15.19,0,0,0-2,.41c-.41.2-.41.6-.61,1.41a7.43,7.43,0,0,0-.41,3,7.6,7.6,0,0,0,1.83,2.84,12.15,12.15,0,0,1,2,3.43,29.39,29.39,0,0,1,.6,3.24c.21.81.61,1.21,1.82,1.62a11.94,11.94,0,0,0,4.65.6,9.53,9.53,0,0,0,2.83-1.21c.61-.2,1,.2,1.22,1.41s.2,3.24.4,4.86a20.52,20.52,0,0,0,1,4,28.21,28.21,0,0,0,1.62,4,21.21,21.21,0,0,0,2.83,4.45,1.31,1.31,0,0,0,.71.44"/><path class="cls-1" d="M191.8,46.27a24.08,24.08,0,0,1,2.76.68c1.21.31,2.42.31,3.84.71a42.52,42.52,0,0,1,4.45,1.82,14.12,14.12,0,0,1,3.84,2,32.27,32.27,0,0,1,3.44,3.84c1,1.22,1.82,2,2.42,2.84a19.88,19.88,0,0,0,1.82,2.42A11.07,11.07,0,0,0,218.62,63c2.22.81,5.46,1.62,7.48,2.22a10.39,10.39,0,0,1,3.64,1.62,4.73,4.73,0,0,1,1.82,2.22c.2.81-.2,1.62-.41,2.83s-.2,2.84-.4,4-.61,2-.41,2.63,1,1,2.63,2.22,4.05,3.24,5.87,4.45a29.21,29.21,0,0,0,4.24,2.22,9.12,9.12,0,0,1,3,2.23l.11.16"/><path class="cls-1" d="M178.69,74.94a2.19,2.19,0,0,0,1-.89c.3-.51.3-.91.5-1.11a.6.6,0,0,1,.81,0c.2.2.2.6.4,1a8.11,8.11,0,0,1,.81,1.41c.21.61.21,1.42.61,1.82s1.21.41,2.22.61,2.23.6,3.24.81a7.18,7.18,0,0,1,2.43.6c.6.41,1,1.22,2.42,2.43s3.84,2.83,5.46,4,2.43,2,3.24,2.63a6.82,6.82,0,0,0,2.42,1.22c.81.2,1.62.2,2.23.4s1,.61,2.22,1,3.24.81,4.85,1.21,2.83.81,3.64,1,1.22.2,1.82.4a6.13,6.13,0,0,1,2.43,1.62,28.44,28.44,0,0,1,3,3.84,9.34,9.34,0,0,0,1.82,2.43c.61.4,1.42.4,1.62.6s-.2.61-.41,1.22a8.35,8.35,0,0,0-.2,2.42,10.82,10.82,0,0,1-.3,3.14c-.18.52-.45,1-.66,1.45"/><path class="cls-1" d="M182.82,77.17a4.09,4.09,0,0,0,1-2.31,22.7,22.7,0,0,1,1-3.14,7,7,0,0,1,1.42-2.42,12,12,0,0,1,2-1.42,7.18,7.18,0,0,1,1.62-1,2.82,2.82,0,0,1,1.82,0c.4.2.4.61.6.81s.61.2,1,.4a2.46,2.46,0,0,1,1,1c.21.41.21.81.41,1a.6.6,0,0,0,.81,0,1.51,1.51,0,0,0,.2-1,2.6,2.6,0,0,0-.2-1.21,8.81,8.81,0,0,1-.81-1.41c-.2-.61-.2-1.42-.41-2.23A4.71,4.71,0,0,0,193.14,62a4.82,4.82,0,0,0-2.22-1.22,10.82,10.82,0,0,0-2.63-.2,6,6,0,0,1-2.83-.4c-.61-.41-.61-1.22-.91-1.62s-.66-.38-2-1"/><path class="cls-1" d="M153.12,159a4.07,4.07,0,0,1-1.33.78c-.91.3-2.12.3-2.73.5a.63.63,0,0,0-.4,1,9,9,0,0,1,.81,1.42,25.43,25.43,0,0,1,.4,2.63,21.54,21.54,0,0,0,1,3.84,11.93,11.93,0,0,1,1,2.43,15.51,15.51,0,0,1,0,4.45c-.2,1.81-.6,3.84-.6,5.05a1.86,1.86,0,0,0,1.21,2,11,11,0,0,1,2.63,1.42c.61.6.61,1.41,1,2a2.47,2.47,0,0,0,2,1,7,7,0,0,0,2.23-.61c.6-.2,1-.2,1.21,0s.2.61.2,1.22a7,7,0,0,1-.2,2,2.05,2.05,0,0,1-1,1.21,3.53,3.53,0,0,1-1.62.2,4,4,0,0,0-2.48.78"/><path class="cls-1" d="M239.71,144.08a3.38,3.38,0,0,0-2.89-1h-5.06a46.31,46.31,0,0,1-5.66-.2c-1.21-.21-1.21-.61-1.42-1.22a8.5,8.5,0,0,0-1.82-2.83,28.49,28.49,0,0,0-4.44-4.24c-1.22-.81-1.62-.41-2.43.2s-2,1.41-3,2a9.64,9.64,0,0,1-2.63,1.21,7.58,7.58,0,0,0-2.23.61,3.63,3.63,0,0,0-1.21,1.82c-.2.61-.2,1-.4,1.21s-.61.2-1.42.41a8.43,8.43,0,0,0-2.83,1.21c-.81.61-1.21,1.42-1.62,1.62s-.81-.2-1.21-.61-.81-.81-1.21-.81-.81.41-1.42,1.22a12.9,12.9,0,0,1-2,2.42c-.61.41-1,0-1.62-.2s-1.41-.2-2.22-.4a17.54,17.54,0,0,0-2-.61c-.41,0-.41.4-.81.81a11.18,11.18,0,0,0-1.82,1.61c-.61.81-1,2-1.42,2.63s-.81.61-1,.21-.2-1.22-.4-1.62-.61-.41-1.42-.41h-2.83c-.81,0-1.21,0-1.62.61s-.81,1.82-1.41,2.63-1.42,1.21-1.82,2.22a22,22,0,0,0-.61,3.64,3.08,3.08,0,0,1-1,1.82,3.68,3.68,0,0,0-1,1.42c-.2.6-.2,1.41-.41,1.82s-.6.4-1,.2a3,3,0,0,0-1.61-.61c-.81,0-2,.41-3.64.41a16.34,16.34,0,0,1-5.26-1,36.91,36.91,0,0,1-4-2,13.68,13.68,0,0,1-3-1.61c-.6-.61-.6-1.42-1.21-2a11.9,11.9,0,0,0-3.24-1.61,19.3,19.3,0,0,1-4-2.23,8.05,8.05,0,0,1-1.82-2.22,2.68,2.68,0,0,0-1.41-1.21c-.61-.21-1.42-.21-2-.41a1.83,1.83,0,0,1-1.21-1.21c-.2-.61-.2-1.42-.4-2s-.61-1-.61-1.42.4-.81.61-1.21.2-.81-.21-1-1.21-.21-1.61-.51a2.18,2.18,0,0,0-1.64-.84"/><path class="cls-1" d="M171.57,210.66a9,9,0,0,1-1.88.58c-.61.2-.61.6-.61,1v1.41a5.05,5.05,0,0,1-.2,1.82c-.2.41-.61.41-1.21.21a7.59,7.59,0,0,0-3-.61c-1.62,0-4,.4-5.66.4a21.92,21.92,0,0,1-3-.4c-.61,0-1,.4-1.62.61a3.48,3.48,0,0,1-2,0c-.61-.21-1-.61-1.62-.61a7.42,7.42,0,0,0-2,.61,4.51,4.51,0,0,1-1.62.2h-2a3.05,3.05,0,0,1-1.42-.2,5.7,5.7,0,0,1-1.21-1L141,213.26a16.5,16.5,0,0,1-1.82-2c-.41-.61-.41-1-.61-1.22s-.61-.2-1.42-.2h-6.47a3.46,3.46,0,0,0-1.61.2c-.41.21-.81.61-2,1.42a51.09,51.09,0,0,0-4.65,3.23c-1.41,1.22-2.22,2.43-2.83,2.84s-1,0-1.41-.41-.81-.81-1.22-.81-.8.41-1.41,1.62-1.42,3.24-2,4.25-1,1-1.42,1a2.47,2.47,0,0,1-1.21-.21c-.41-.2-.81-.6-1.21-.6s-.81.4-1.22.6-.81.21-1.21.41a5.19,5.19,0,0,0-1.21,1,3.67,3.67,0,0,0-1,1.41c-.2.61-.2,1.42-.4,1.83s-.61.4-1,.8-.81,1.22-1.21,1.42-.81-.2-1.42-.61-1.41-.81-2-1.21-1-.81-1.42-1a1.26,1.26,0,0,0-1.31.1,4.85,4.85,0,0,1-3.13.9"/><path class="cls-1" d="M138.38,355.76a8.38,8.38,0,0,0,1.48-1.87,21.14,21.14,0,0,0,1.32-3.34,31.55,31.55,0,0,0,1-3.44c.2-1,.2-1.82.4-2.63s.61-1.61.81-2.42a4.2,4.2,0,0,0,0-2.23,3.54,3.54,0,0,0-1-1.41,3.68,3.68,0,0,1-1-1.42,7.61,7.61,0,0,1-.2-2.22v-18.4c0-3,0-3.84.2-4.25s.61-.4,1.21-.6,1.42-.61,2.23-.81a11.66,11.66,0,0,1,2.83-.2,19,19,0,0,0,3.64-.21c.81-.2.81-.6,1.62-1.21a17.39,17.39,0,0,0,3.23-2.43,6.64,6.64,0,0,0,1-3,1.76,1.76,0,0,1,1.21-1.41,6.69,6.69,0,0,1,2-.21,4.26,4.26,0,0,1,1.61.21,4.06,4.06,0,0,0,2.23.4,8,8,0,0,0,2.22-1.42,2.21,2.21,0,0,1,1.42-.4,1.53,1.53,0,0,1,1,.2c.2.2.2.61.6,1.22a6,6,0,0,0,2,1.81,2.47,2.47,0,0,0,2,.21c.4-.21.4-.61.81-1a3,3,0,0,1,2-.81,4.19,4.19,0,0,1,2.43,1,22.2,22.2,0,0,1,2.22,2c.61.61,1,1,1.21,1s.21-.4.61-1a17,17,0,0,1,2-2.22,10.9,10.9,0,0,1,2.43-2,2.09,2.09,0,0,1,2-.1c.33.25.39.69,2.94,1.49"/><path class="cls-1" d="M92.45,253c3-.53,4,0,5,.38,1.22.5,2.43.9,3.44,1.31a8.5,8.5,0,0,0,2.43.81c.6,0,1-.41,1.41-1s.81-1.42,1.22-2a3.33,3.33,0,0,1,1.21-1.22,1.3,1.3,0,0,1,1.21,0c.41.2.81.61,1.22.81a.91.91,0,0,0,1,0c.2-.2.2-.61,0-1.21s-.61-1.42-.41-2,1-1,2-2,2.23-2.62,3.44-3.64a21.71,21.71,0,0,1,3.44-2c1-.6,1.82-1.41,2.63-1.82a5.15,5.15,0,0,1,2.42-.4,12.57,12.57,0,0,1,2.63.2,25.29,25.29,0,0,0,2.83.61c.61,0,.61-.41,1-.61a18.09,18.09,0,0,1,2-.4c.8-.21,1.61-.61,2.22-.81s1-.21,1.21,0a6.2,6.2,0,0,0,1,1.41c.81.81,2.43,2,3.44,3s1.42,1.83,2,2.43a12.88,12.88,0,0,0,2,1.42,3.41,3.41,0,0,1,1.22,1.21,1.3,1.3,0,0,1,0,1.21,5.44,5.44,0,0,1-1,1.22c-.41.4-.81.81-.81,1.21s.4.81,1,1.82,1.41,2.63,2,3.84l1.42,2.83a19.93,19.93,0,0,1,1,2.23c.2.6.2,1,.6,1.21a2.26,2.26,0,0,0,1.62,0c.41-.2.41-.61.61-.61s.61.41.81.41.2-.41.2-.81a2.21,2.21,0,0,1,.4-1.42,6.51,6.51,0,0,1,1.62-1.62c.41-.2.41.21.41.61v1.22c0,.4,0,.8.91,1a31.65,31.65,0,0,0,5.08.2"/></g></g></svg>